<mxfile host="app.diagrams.net" modified="2020-10-04T03:01:07.648Z" agent="5.0 (Windows NT 10.0; Win64; x64) AppleWebKit/537.36 (KHTML, like Gecko) Chrome/85.0.4183.121 Safari/537.36" etag="Nb833WP8GZ1NBW4ajlG7" version="13.7.7" type="github">
  <diagram id="C5RBs43oDa-KdzZeNtuy" name="Page-1">
    <mxGraphModel dx="1550" dy="713" grid="1" gridSize="10" guides="1" tooltips="1" connect="1" arrows="1" fold="1" page="1" pageScale="1" pageWidth="827" pageHeight="1169" math="0" shadow="0">
      <root>
        <mxCell id="WIyWlLk6GJQsqaUBKTNV-0" />
        <mxCell id="WIyWlLk6GJQsqaUBKTNV-1" parent="WIyWlLk6GJQsqaUBKTNV-0" />
        <mxCell id="gu7yN_isjLVDufyLFfo--1" style="edgeStyle=orthogonalEdgeStyle;rounded=0;orthogonalLoop=1;jettySize=auto;html=1;exitX=0.5;exitY=1;exitDx=0;exitDy=0;entryX=0.5;entryY=0;entryDx=0;entryDy=0;entryPerimeter=0;endArrow=block;endFill=0;endSize=8;" edge="1" parent="WIyWlLk6GJQsqaUBKTNV-1" source="WIyWlLk6GJQsqaUBKTNV-3" target="gu7yN_isjLVDufyLFfo--0">
          <mxGeometry relative="1" as="geometry" />
        </mxCell>
        <mxCell id="WIyWlLk6GJQsqaUBKTNV-3" value="For each resource of a PUBLISHED package of type GEOGRAPHIC with a non-null object_name" style="rounded=1;whiteSpace=wrap;html=1;fontSize=12;glass=0;strokeWidth=1;shadow=0;" parent="WIyWlLk6GJQsqaUBKTNV-1" vertex="1">
          <mxGeometry x="340" y="30" width="190" height="90" as="geometry" />
        </mxCell>
        <mxCell id="gu7yN_isjLVDufyLFfo--5" style="edgeStyle=orthogonalEdgeStyle;rounded=0;orthogonalLoop=1;jettySize=auto;html=1;exitX=0.5;exitY=1;exitDx=0;exitDy=0;entryX=0.5;entryY=0;entryDx=0;entryDy=0;entryPerimeter=0;endArrow=block;endFill=0;endSize=8;" edge="1" parent="WIyWlLk6GJQsqaUBKTNV-1" source="5RYxtKs-X8w1mviuIVRR-2" target="gu7yN_isjLVDufyLFfo--2">
          <mxGeometry relative="1" as="geometry" />
        </mxCell>
        <mxCell id="5RYxtKs-X8w1mviuIVRR-2" value="Compare&lt;br&gt;EDRP_REPL_REFRESH_DATES_ROLLUP&lt;br&gt;&lt;b&gt;last_refresh_date &lt;/b&gt;(ROLLUP)&lt;br&gt;with resource &lt;b&gt;last_modified&lt;/b&gt; (BCDC)" style="rounded=1;whiteSpace=wrap;html=1;fontSize=12;glass=0;strokeWidth=1;shadow=0;" parent="WIyWlLk6GJQsqaUBKTNV-1" vertex="1">
          <mxGeometry x="310" y="340" width="250" height="70" as="geometry" />
        </mxCell>
        <mxCell id="5RYxtKs-X8w1mviuIVRR-5" value="Update resource &lt;b&gt;last_modified&lt;/b&gt;" style="rounded=1;whiteSpace=wrap;html=1;fontSize=12;glass=0;strokeWidth=1;shadow=0;" parent="WIyWlLk6GJQsqaUBKTNV-1" vertex="1">
          <mxGeometry x="300" y="610" width="270" height="50" as="geometry" />
        </mxCell>
        <mxCell id="gu7yN_isjLVDufyLFfo--3" style="edgeStyle=orthogonalEdgeStyle;rounded=0;orthogonalLoop=1;jettySize=auto;html=1;exitX=0.5;exitY=1;exitDx=0;exitDy=0;exitPerimeter=0;entryX=0.5;entryY=0;entryDx=0;entryDy=0;endArrow=block;endFill=0;endSize=8;" edge="1" parent="WIyWlLk6GJQsqaUBKTNV-1" source="gu7yN_isjLVDufyLFfo--0" target="5RYxtKs-X8w1mviuIVRR-2">
          <mxGeometry relative="1" as="geometry" />
        </mxCell>
        <mxCell id="gu7yN_isjLVDufyLFfo--0" value="Is the resource_storage_location &lt;br&gt;the BCGW?" style="strokeWidth=2;html=1;shape=mxgraph.flowchart.decision;whiteSpace=wrap;" vertex="1" parent="WIyWlLk6GJQsqaUBKTNV-1">
          <mxGeometry x="350" y="180" width="170" height="100" as="geometry" />
        </mxCell>
        <mxCell id="gu7yN_isjLVDufyLFfo--6" style="edgeStyle=orthogonalEdgeStyle;rounded=0;orthogonalLoop=1;jettySize=auto;html=1;exitX=0.5;exitY=1;exitDx=0;exitDy=0;exitPerimeter=0;entryX=0.5;entryY=0;entryDx=0;entryDy=0;endArrow=block;endFill=0;endSize=8;" edge="1" parent="WIyWlLk6GJQsqaUBKTNV-1" source="gu7yN_isjLVDufyLFfo--2" target="5RYxtKs-X8w1mviuIVRR-5">
          <mxGeometry relative="1" as="geometry" />
        </mxCell>
        <mxCell id="gu7yN_isjLVDufyLFfo--2" value="ROLLUP &amp;gt; BCDC" style="strokeWidth=2;html=1;shape=mxgraph.flowchart.decision;whiteSpace=wrap;" vertex="1" parent="WIyWlLk6GJQsqaUBKTNV-1">
          <mxGeometry x="350" y="460" width="170" height="100" as="geometry" />
        </mxCell>
        <mxCell id="gu7yN_isjLVDufyLFfo--4" value="Yes" style="text;html=1;resizable=0;autosize=1;align=center;verticalAlign=middle;points=[];fillColor=none;strokeColor=none;rounded=0;" vertex="1" parent="WIyWlLk6GJQsqaUBKTNV-1">
          <mxGeometry x="430" y="290" width="40" height="20" as="geometry" />
        </mxCell>
        <mxCell id="gu7yN_isjLVDufyLFfo--7" value="Yes" style="text;html=1;resizable=0;autosize=1;align=center;verticalAlign=middle;points=[];fillColor=none;strokeColor=none;rounded=0;" vertex="1" parent="WIyWlLk6GJQsqaUBKTNV-1">
          <mxGeometry x="430" y="575" width="40" height="20" as="geometry" />
        </mxCell>
      </root>
    </mxGraphModel>
  </diagram>
</mxfile>
